<svg xmlns="http://www.w3.org/2000/svg" viewBox="0 0 64 7"><g fill="none" fill-rule="evenodd"><path fill="#EF4923" d="M7.76752941,0 L2.97898039,7 L0,7 L4.78854902,0 L7.76752941,0 Z M11.2194353,0 L6.43088627,7 L3.45300392,7 L8.2404549,0 L11.2194353,0 Z"/><path fill="currentColor" d="M13.8111373,2.3715451 C15.5032157,2.3715451 16.3498039,2.87225098 16.3498039,3.87146667 C16.3498039,3.92197647 16.3476078,3.97358431 16.3454118,4.02519216 L13.915451,4.02519216 C13.945098,3.9088 13.9593725,3.80778039 13.9593725,3.72213333 C13.9593725,3.4662902 13.8243137,3.33781961 13.552,3.33781961 C13.1896471,3.33781961 12.9469804,3.5673098 12.8261961,4.02519216 L12.4748235,5.33844706 C12.4429804,5.45374118 12.4265098,5.55366275 12.4265098,5.63711373 C12.4265098,5.89625098 12.5626667,6.02581961 12.8338824,6.02581961 C13.1973333,6.02581961 13.441098,5.79632941 13.5651765,5.33844706 L15.9940392,5.33844706 C15.4911373,6.44636863 14.3513725,6.99978039 12.5758431,6.99978039 C10.8859608,6.99978039 10.0404706,6.49907451 10.0371765,5.49656471 C10.0371765,5.30550588 10.0690196,5.09797647 10.1305098,4.87397647 L10.2271373,4.49844706 C10.6059608,3.08087843 11.8006275,2.3715451 13.8111373,2.3715451 Z M20.1169569,2.3715451 C21.8090353,2.3715451 22.6556235,2.87444706 22.6556235,3.87915294 C22.6556235,4.06801569 22.6248784,4.27444706 22.5622902,4.49844706 L22.4656627,4.86958431 C22.0868392,6.28934902 20.8921725,6.99978039 18.8827608,6.99978039 C17.1786039,6.99978039 16.3331137,6.49138824 16.3440941,5.47570196 C16.3462902,5.29013333 16.3770353,5.08809412 16.4363294,4.86958431 L16.5329569,4.49844706 C16.9128784,3.08087843 18.1075451,2.3715451 20.1169569,2.3715451 Z M29.3983529,1.17248627 L27.8490196,6.95915294 L25.7825098,6.95915294 L25.8275294,6.79334902 C25.4981176,6.93060392 25.1511373,6.99978039 24.7854902,6.99978039 C23.3756078,6.99978039 22.6728627,6.51993725 22.6794051,5.56134902 C22.6816471,5.35381961 22.7167843,5.12323137 22.7837647,4.86958431 L22.8847843,4.4940549 C23.2614118,3.07978039 24.3067451,2.3715451 26.0207843,2.3715451 C26.3919216,2.3715451 26.7048627,2.43632941 26.9607059,2.56589804 L27.3318431,1.17248627 L29.3983529,1.17248627 Z M38.3007059,1.17248627 L37.9295686,2.56589804 C38.2501961,2.43632941 38.5960784,2.3715451 38.9661176,2.3715451 C40.3683137,2.3715451 41.0699608,2.8448 41.0732549,3.79021176 C41.0732549,4.00323137 41.0392157,4.23821176 40.9722353,4.4940549 L40.8712157,4.86958431 C40.4923922,6.28934902 39.4448627,6.99978039 37.7319216,6.99978039 C37.3651765,6.99978039 37.0533333,6.93060392 36.7952941,6.79334902 L36.7513725,6.95915294 L34.6848627,6.95915294 L36.2341961,1.17248627 L38.3007059,1.17248627 Z M32.4980078,2.3716549 C34.1933804,2.3716549 35.0399686,2.87016471 35.0399686,3.86718431 C35.0399686,4.06153725 35.0081255,4.27345882 34.9433412,4.50185098 L34.8104784,4.99047843 L31.2550275,4.99047843 L31.1627922,5.33855686 C31.129851,5.45385098 31.1144784,5.55596863 31.1144784,5.64161569 C31.1144784,5.89745882 31.2495373,6.02592941 31.521851,6.02592941 C31.8820078,6.02592941 32.1136941,5.83706667 32.2158118,5.46043922 L34.6205176,5.46043922 C34.0956549,6.48600784 32.9767529,6.9998902 31.2627137,6.9998902 C29.5706353,6.9998902 28.7240471,6.49698824 28.7240471,5.49228235 C28.7240471,5.30671373 28.7558902,5.10028235 28.8173804,4.87408627 L28.9140078,4.49855686 C29.2939294,3.08098824 30.4885961,2.3716549 32.4980078,2.3716549 Z M44.8786196,2.3715451 C46.5717961,2.3715451 47.4172863,2.87444706 47.4172863,3.87915294 C47.4172863,4.06801569 47.3865412,4.27444706 47.325051,4.49844706 L47.2273255,4.86958431 C46.848502,6.28934902 45.6538353,6.99978039 43.6444235,6.99978039 C41.9413647,6.99978039 41.0947765,6.49138824 41.1057569,5.47570196 C41.109051,5.29013333 41.138698,5.08809412 41.1990902,4.86958431 L41.2946196,4.49844706 C41.6745412,3.08087843 42.8692078,2.3715451 44.8786196,2.3715451 Z M61.2105255,2.3716549 C62.905898,2.3716549 63.7524863,2.87016471 63.7524863,3.86718431 C63.7524863,4.06153725 63.7206431,4.27345882 63.6558588,4.50185098 L63.5229961,4.99047843 L59.9675451,4.99047843 L59.8753098,5.33855686 C59.8423686,5.45385098 59.8269961,5.55596863 59.8269961,5.64161569 C59.8269961,5.89745882 59.9620549,6.02592941 60.2343686,6.02592941 C60.5945255,6.02592941 60.8262118,5.83706667 60.9283294,5.46043922 L63.3341333,5.46043922 C62.8081725,6.48600784 61.6892706,6.9998902 59.9752314,6.9998902 C58.2831529,6.9998902 57.4376627,6.49698824 57.4376627,5.49228235 C57.4376627,5.30671373 57.4684078,5.10028235 57.529898,4.87408627 L57.6265255,4.49855686 C58.0064471,3.08098824 59.2011137,2.3716549 61.2105255,2.3716549 Z M52.1666353,2.38801569 L51.8921255,3.41468235 C51.5802824,3.36087843 51.2596549,3.33452549 50.9313412,3.33452549 C50.3801255,3.33452549 50.0166745,3.65844706 49.8420863,4.30738824 L49.1316549,6.95915294 L47.0651451,6.95915294 L48.2839686,2.41217255 L50.3504784,2.41217255 L50.310949,2.56589804 C50.6546353,2.43632941 51.0125961,2.37264314 51.3837333,2.37264314 C51.7548706,2.37264314 52.0162039,2.37813333 52.1666353,2.38801569 Z M55.9112784,2.37275294 C56.9093961,2.37275294 57.4090039,2.75926275 57.4090039,3.53228235 C57.4090039,3.73212549 57.3738667,3.95832157 57.3035922,4.21087059 L56.5690039,6.95926275 L54.5035922,6.95926275 L55.2897882,4.0209098 C55.3194353,3.90561569 55.3359059,3.80569412 55.338102,3.72224314 C55.338102,3.46310588 55.2019451,3.33463529 54.9307294,3.33463529 C54.5672784,3.33463529 54.3246118,3.56412549 54.2005333,4.02530196 L53.4132392,6.95926275 L51.3467294,6.95926275 L52.5655529,2.41228235 L54.6320627,2.41228235 L54.5914353,2.56600784 C54.9142588,2.43643922 55.3545725,2.37275294 55.9112784,2.37275294 Z M19.8589176,3.33781961 C19.4954667,3.33781961 19.253898,3.5673098 19.1320157,4.02519216 L18.7806431,5.33844706 C18.7488,5.45374118 18.7323294,5.55366275 18.7323294,5.63711373 C18.7323294,5.89625098 18.8684863,6.02581961 19.139702,6.02581961 C19.504251,6.02581961 19.7469176,5.79632941 19.8709961,5.33844706 L20.2223686,4.02519216 C20.2520157,3.9088 20.2662902,3.80887843 20.2662902,3.72652549 C20.2662902,3.46738824 20.1301333,3.33781961 19.8589176,3.33781961 Z M26.2063529,3.33781961 C25.842902,3.33781961 25.6013333,3.5673098 25.479451,4.02519216 L25.1280784,5.33844706 C25.0962353,5.45374118 25.0797647,5.55366275 25.0797647,5.63711373 C25.0797647,5.89625098 25.2159216,6.02581961 25.4871373,6.02581961 C25.8516863,6.02581961 26.0943529,5.79632941 26.2184314,5.33844706 L26.5698039,4.02519216 C26.599451,3.9088 26.6137255,3.80887843 26.6137255,3.72652549 C26.6137255,3.46738824 26.4775686,3.33781961 26.2063529,3.33781961 Z M38.2644706,3.33781961 C37.9010196,3.33781961 37.659451,3.5673098 37.5375686,4.02519216 L37.1872941,5.33844706 C37.1543529,5.45374118 37.1378824,5.55366275 37.1378824,5.63711373 C37.1378824,5.89625098 37.2740392,6.02581961 37.5452549,6.02581961 C37.9098039,6.02581961 38.1524706,5.79632941 38.276549,5.33844706 L38.6279216,4.02519216 C38.6575686,3.9088 38.6718431,3.80887843 38.6718431,3.72652549 C38.6718431,3.46738824 38.5356863,3.33781961 38.2644706,3.33781961 Z M44.6205804,3.33781961 C44.2571294,3.33781961 44.0155608,3.5673098 43.8947765,4.02519216 L43.5434039,5.33844706 C43.5115608,5.45374118 43.4950902,5.55366275 43.4950902,5.63711373 C43.4950902,5.89625098 43.630149,6.02581961 43.9024627,6.02581961 C44.2659137,6.02581961 44.5096784,5.79632941 44.6326588,5.33844706 L44.9840314,4.02519216 C45.0136784,3.9088 45.0279529,3.80887843 45.0279529,3.72652549 C45.0279529,3.46738824 44.8917961,3.33781961 44.6205804,3.33781961 Z M32.2476549,3.33463529 C31.8842039,3.33463529 31.6415373,3.56412549 31.5174588,4.02530196 L31.4724392,4.18671373 L32.5627922,4.18671373 L32.6067137,4.02530196 C32.6363608,3.9144 32.6517333,3.81667451 32.6517333,3.72992941 C32.6561255,3.4664 32.5221647,3.33463529 32.2476549,3.33463529 Z M60.9601725,3.33463529 C60.5967216,3.33463529 60.3540549,3.56412549 60.2299765,4.02530196 L60.1849569,4.18671373 L61.2753098,4.18671373 L61.3203294,4.02530196 C61.3488784,3.9144 61.364251,3.81667451 61.364251,3.72992941 C61.3686431,3.4664 61.2346824,3.33463529 60.9601725,3.33463529 Z"/></g></svg>
